<svg width="726" height="133" viewBox="0 0 726 133" fill="none" xmlns="http://www.w3.org/2000/svg">
<path d="M168.12 74H161.4C160.227 74 159.64 73.44 159.64 72.32V32.24C159.64 31.6533 159.347 31.36 158.76 31.36H149.64C148.52 31.36 147.96 30.8 147.96 29.68V24.24C147.96 23.12 148.52 22.56 149.64 22.56H179.88C181 22.56 181.56 23.12 181.56 24.24V29.68C181.56 30.8 181 31.36 179.88 31.36H170.76C170.12 31.36 169.8 31.6533 169.8 32.24V72.32C169.8 73.44 169.24 74 168.12 74ZM198.229 24.24V72.32C198.229 73.44 197.669 74 196.549 74H189.749C188.629 74 188.069 73.44 188.069 72.32V24.24C188.069 23.12 188.629 22.56 189.749 22.56H196.549C197.669 22.56 198.229 23.12 198.229 24.24ZM224.917 74H218.197C217.024 74 216.437 73.44 216.437 72.32V32.24C216.437 31.6533 216.144 31.36 215.557 31.36H206.437C205.317 31.36 204.757 30.8 204.757 29.68V24.24C204.757 23.12 205.317 22.56 206.437 22.56H236.677C237.797 22.56 238.357 23.12 238.357 24.24V29.68C238.357 30.8 237.797 31.36 236.677 31.36H227.557C226.917 31.36 226.597 31.6533 226.597 32.24V72.32C226.597 73.44 226.037 74 224.917 74ZM270.786 22.56H277.506C278.679 22.56 279.266 23.0933 279.266 24.16V60.96C279.266 65.12 278.092 68.3467 275.746 70.64C273.452 72.88 270.226 74 266.066 74H257.266C253.052 74 249.799 72.88 247.506 70.64C245.212 68.4 244.066 65.1733 244.066 60.96V24.24C244.066 23.12 244.626 22.56 245.746 22.56H252.546C253.666 22.56 254.226 23.12 254.226 24.24V60.48C254.226 62.1867 254.572 63.4133 255.266 64.16C256.012 64.8533 257.212 65.2 258.866 65.2H264.386C266.092 65.2 267.292 64.8533 267.986 64.16C268.732 63.4133 269.106 62.1867 269.106 60.48V24.24C269.106 23.12 269.666 22.56 270.786 22.56ZM287.951 60.88V59.28C287.951 58.16 288.511 57.6 289.631 57.6H296.431C297.551 57.6 298.111 58.16 298.111 59.28V59.92C298.111 61.9467 298.511 63.3333 299.311 64.08C300.111 64.8267 301.578 65.2 303.711 65.2H307.471C309.551 65.2 310.991 64.8 311.791 64C312.645 63.2 313.071 61.7067 313.071 59.52V58.56C313.071 57.0133 312.431 55.84 311.151 55.04C309.925 54.1867 308.378 53.68 306.511 53.52C304.645 53.36 302.618 53.0667 300.431 52.64C298.298 52.16 296.298 51.5733 294.431 50.88C292.565 50.1333 290.991 48.72 289.711 46.64C288.485 44.5067 287.871 41.7867 287.871 38.48V35.68C287.871 31.52 289.045 28.2933 291.391 26C293.738 23.7067 296.991 22.56 301.151 22.56H309.151C313.365 22.56 316.645 23.7067 318.991 26C321.338 28.2933 322.511 31.52 322.511 35.68V37.2C322.511 38.32 321.951 38.88 320.831 38.88H314.031C312.911 38.88 312.351 38.32 312.351 37.2V36.72C312.351 34.64 311.951 33.2267 311.151 32.48C310.351 31.7333 308.885 31.36 306.751 31.36H303.631C301.445 31.36 299.951 31.7867 299.151 32.64C298.405 33.44 298.031 35.04 298.031 37.44V38.96C298.031 41.4667 300.218 42.9067 304.591 43.28C309.125 43.6533 313.151 44.56 316.671 46C318.538 46.8 320.085 48.24 321.311 50.32C322.591 52.3467 323.231 54.96 323.231 58.16V60.88C323.231 65.04 322.058 68.2667 319.711 70.56C317.365 72.8533 314.111 74 309.951 74H301.231C297.071 74 293.818 72.8533 291.471 70.56C289.125 68.2667 287.951 65.04 287.951 60.88ZM360.494 24.24V72.32C360.494 73.44 359.934 74 358.814 74H352.014C350.894 74 350.334 73.44 350.334 72.32V24.24C350.334 23.12 350.894 22.56 352.014 22.56H358.814C359.934 22.56 360.494 23.12 360.494 24.24ZM379.583 74H372.943C371.823 74 371.263 73.44 371.263 72.32V24.24C371.263 23.12 371.823 22.56 372.943 22.56H378.943C380.063 22.56 380.809 22.9333 381.183 23.68L397.343 54H397.663V24.24C397.663 23.12 398.223 22.56 399.343 22.56H405.983C407.103 22.56 407.663 23.12 407.663 24.24V72.32C407.663 73.44 407.103 74 405.983 74H400.143C398.969 74 398.116 73.4667 397.583 72.4L381.583 42.64H381.263V72.32C381.263 73.44 380.703 74 379.583 74ZM429.099 65.2H437.819C439.526 65.2 440.726 64.8533 441.419 64.16C442.166 63.4133 442.539 62.1867 442.539 60.48V36.08C442.539 34.3733 442.166 33.1733 441.419 32.48C440.726 31.7333 439.526 31.36 437.819 31.36H429.099C428.513 31.36 428.219 31.6533 428.219 32.24V64.32C428.219 64.9067 428.513 65.2 429.099 65.2ZM418.059 72.32V24.24C418.059 23.12 418.619 22.56 419.739 22.56H439.499C443.659 22.56 446.886 23.7067 449.179 26C451.526 28.24 452.699 31.44 452.699 35.6V60.96C452.699 65.12 451.526 68.3467 449.179 70.64C446.886 72.88 443.659 74 439.499 74H419.739C418.619 74 418.059 73.44 418.059 72.32ZM488.598 22.56H495.318C496.491 22.56 497.078 23.0933 497.078 24.16V60.96C497.078 65.12 495.905 68.3467 493.558 70.64C491.265 72.88 488.038 74 483.878 74H475.078C470.865 74 467.611 72.88 465.318 70.64C463.025 68.4 461.878 65.1733 461.878 60.96V24.24C461.878 23.12 462.438 22.56 463.558 22.56H470.358C471.478 22.56 472.038 23.12 472.038 24.24V60.48C472.038 62.1867 472.385 63.4133 473.078 64.16C473.825 64.8533 475.025 65.2 476.678 65.2H482.198C483.905 65.2 485.105 64.8533 485.798 64.16C486.545 63.4133 486.918 62.1867 486.918 60.48V24.24C486.918 23.12 487.478 22.56 488.598 22.56ZM505.764 60.88V59.28C505.764 58.16 506.324 57.6 507.444 57.6H514.244C515.364 57.6 515.924 58.16 515.924 59.28V59.92C515.924 61.9467 516.324 63.3333 517.124 64.08C517.924 64.8267 519.39 65.2 521.524 65.2H525.284C527.364 65.2 528.804 64.8 529.604 64C530.457 63.2 530.884 61.7067 530.884 59.52V58.56C530.884 57.0133 530.244 55.84 528.964 55.04C527.737 54.1867 526.19 53.68 524.324 53.52C522.457 53.36 520.43 53.0667 518.244 52.64C516.11 52.16 514.11 51.5733 512.244 50.88C510.377 50.1333 508.804 48.72 507.524 46.64C506.297 44.5067 505.684 41.7867 505.684 38.48V35.68C505.684 31.52 506.857 28.2933 509.204 26C511.55 23.7067 514.804 22.56 518.964 22.56H526.964C531.177 22.56 534.457 23.7067 536.804 26C539.15 28.2933 540.324 31.52 540.324 35.68V37.2C540.324 38.32 539.764 38.88 538.644 38.88H531.844C530.724 38.88 530.164 38.32 530.164 37.2V36.72C530.164 34.64 529.764 33.2267 528.964 32.48C528.164 31.7333 526.697 31.36 524.564 31.36H521.444C519.257 31.36 517.764 31.7867 516.964 32.64C516.217 33.44 515.844 35.04 515.844 37.44V38.96C515.844 41.4667 518.03 42.9067 522.404 43.28C526.937 43.6533 530.964 44.56 534.484 46C536.35 46.8 537.897 48.24 539.124 50.32C540.404 52.3467 541.044 54.96 541.044 58.16V60.88C541.044 65.04 539.87 68.2667 537.524 70.56C535.177 72.8533 531.924 74 527.764 74H519.044C514.884 74 511.63 72.8533 509.284 70.56C506.937 68.2667 505.764 65.04 505.764 60.88ZM566.089 74H559.369C558.195 74 557.609 73.44 557.609 72.32V32.24C557.609 31.6533 557.315 31.36 556.729 31.36H547.609C546.489 31.36 545.929 30.8 545.929 29.68V24.24C545.929 23.12 546.489 22.56 547.609 22.56H577.849C578.969 22.56 579.529 23.12 579.529 24.24V29.68C579.529 30.8 578.969 31.36 577.849 31.36H568.729C568.089 31.36 567.769 31.6533 567.769 32.24V72.32C567.769 73.44 567.209 74 566.089 74ZM594.118 74H587.318C586.198 74 585.638 73.44 585.638 72.32V24.24C585.638 23.12 586.198 22.56 587.318 22.56H606.358C610.518 22.56 613.771 23.7067 616.118 26C618.464 28.2933 619.638 31.52 619.638 35.68V41.92C619.638 47.9467 617.264 51.9467 612.518 53.92V54.24L621.078 72.08C621.558 73.36 621.104 74 619.718 74H613.238C612.278 74 611.584 73.8933 611.158 73.68C610.731 73.4667 610.384 73.0133 610.118 72.32L602.118 55.04H596.758C596.118 55.04 595.798 55.3333 595.798 55.92V72.32C595.798 73.44 595.238 74 594.118 74ZM596.678 46.88H604.518C606.224 46.88 607.478 46.5333 608.278 45.84C609.078 45.0933 609.478 43.92 609.478 42.32V36.08C609.478 34.4267 609.078 33.2267 608.278 32.48C607.478 31.7333 606.224 31.36 604.518 31.36H596.678C596.091 31.36 595.798 31.6533 595.798 32.24V46C595.798 46.5867 596.091 46.88 596.678 46.88ZM639.948 24.24V72.32C639.948 73.44 639.388 74 638.268 74H631.468C630.348 74 629.788 73.44 629.788 72.32V24.24C629.788 23.12 630.348 22.56 631.468 22.56H638.268C639.388 22.56 639.948 23.12 639.948 24.24ZM656.076 74H648.396C647.436 74 647.116 73.44 647.436 72.32L660.076 24.24C660.449 23.12 661.249 22.56 662.476 22.56H673.116C674.449 22.56 675.249 23.12 675.516 24.24L688.156 72.32C688.476 73.44 688.156 74 687.196 74H679.516C678.929 74 678.529 73.8933 678.316 73.68C678.102 73.4133 677.942 72.96 677.836 72.32L675.596 63.52H659.996L657.756 72.32C657.649 72.96 657.462 73.4133 657.196 73.68C656.982 73.8933 656.609 74 656.076 74ZM667.676 32.24L661.916 55.36H673.756L667.996 32.24H667.676ZM723.247 74H696.927C695.807 74 695.247 73.44 695.247 72.32V24.24C695.247 23.12 695.807 22.56 696.927 22.56H703.727C704.847 22.56 705.407 23.12 705.407 24.24V64.24C705.407 64.8267 705.727 65.12 706.367 65.12H723.247C724.314 65.12 724.847 65.7067 724.847 66.88V72.32C724.847 73.44 724.314 74 723.247 74Z" fill="#041250"/>
<path d="M168.58 120H156.42C155.989 120 155.774 119.785 155.774 119.354V96.212C155.774 95.7813 155.989 95.566 156.42 95.566H168.58C168.985 95.566 169.188 95.7813 169.188 96.212V98.15C169.188 98.5807 168.985 98.796 168.58 98.796H159.916C159.612 98.796 159.46 98.9227 159.46 99.176V105.598C159.46 105.851 159.612 105.978 159.916 105.978H167.25C167.706 105.978 167.934 106.193 167.934 106.624V108.562C167.934 108.993 167.706 109.208 167.25 109.208H159.916C159.612 109.208 159.46 109.335 159.46 109.588V116.352C159.46 116.631 159.612 116.77 159.916 116.77H168.58C168.985 116.77 169.188 116.985 169.188 117.416V119.354C169.188 119.785 168.985 120 168.58 120ZM198.58 116.77H201.886C203.71 116.77 204.622 115.833 204.622 113.958V101.608C204.622 99.7333 203.71 98.796 201.886 98.796H198.58C196.756 98.796 195.844 99.7333 195.844 101.608V113.958C195.844 115.833 196.756 116.77 198.58 116.77ZM205.686 125.054H203.558C203 125.054 202.595 124.839 202.342 124.408L199.758 120H198.01C196.135 120 194.678 119.481 193.64 118.442C192.601 117.403 192.082 115.959 192.082 114.11V101.456C192.082 99.5813 192.601 98.1373 193.64 97.124C194.678 96.0853 196.135 95.566 198.01 95.566H202.418C204.292 95.566 205.736 96.0853 206.75 97.124C207.788 98.1373 208.308 99.5813 208.308 101.456V114.11C208.308 115.757 207.89 117.087 207.054 118.1C206.243 119.088 205.09 119.683 203.596 119.886L206.142 124.256C206.268 124.509 206.281 124.699 206.18 124.826C206.078 124.978 205.914 125.054 205.686 125.054ZM244.729 95.566H247.123C247.579 95.566 247.807 95.7687 247.807 96.174V114.11C247.807 115.959 247.275 117.403 246.211 118.442C245.172 119.481 243.728 120 241.879 120H237.661C235.812 120 234.368 119.481 233.329 118.442C232.29 117.403 231.771 115.959 231.771 114.11V96.212C231.771 95.7813 231.986 95.566 232.417 95.566H234.811C235.242 95.566 235.457 95.7813 235.457 96.212V113.958C235.457 115.833 236.369 116.77 238.193 116.77H241.309C243.158 116.77 244.083 115.833 244.083 113.958V96.212C244.083 95.7813 244.298 95.566 244.729 95.566ZM275.229 96.212V119.354C275.229 119.785 275.014 120 274.583 120H272.189C271.759 120 271.543 119.785 271.543 119.354V96.212C271.543 95.7813 271.759 95.566 272.189 95.566H274.583C275.014 95.566 275.229 95.7813 275.229 96.212ZM302.245 120H299.851C299.42 120 299.205 119.785 299.205 119.354V96.212C299.205 95.7813 299.42 95.566 299.851 95.566H308.895C310.744 95.566 312.188 96.0853 313.227 97.124C314.265 98.1373 314.785 99.5813 314.785 101.456V105.408C314.785 107.257 314.265 108.701 313.227 109.74C312.188 110.779 310.744 111.298 308.895 111.298H303.347C303.043 111.298 302.891 111.425 302.891 111.678V119.354C302.891 119.785 302.675 120 302.245 120ZM303.309 108.03H308.363C310.161 108.03 311.061 107.093 311.061 105.218V101.608C311.061 99.7333 310.161 98.796 308.363 98.796H303.309C303.03 98.796 302.891 98.9227 302.891 99.176V107.65C302.891 107.903 303.03 108.03 303.309 108.03ZM354.241 95.566H358.497C358.928 95.566 359.143 95.7813 359.143 96.212V119.354C359.143 119.785 358.928 120 358.497 120H356.141C355.71 120 355.495 119.785 355.495 119.354V100.164H355.343L350.403 114.072C350.251 114.477 349.972 114.68 349.567 114.68H347.135C346.755 114.68 346.489 114.477 346.337 114.072L341.283 100.126H341.131V119.354C341.131 119.607 341.08 119.785 340.979 119.886C340.903 119.962 340.738 120 340.485 120H338.167C337.736 120 337.521 119.785 337.521 119.354V96.212C337.521 95.7813 337.736 95.566 338.167 95.566H342.423C342.702 95.566 342.904 95.7053 343.031 95.984L348.237 110.652H348.427L353.671 95.984C353.722 95.7053 353.912 95.566 354.241 95.566ZM395.731 120H383.571C383.14 120 382.925 119.785 382.925 119.354V96.212C382.925 95.7813 383.14 95.566 383.571 95.566H395.731C396.136 95.566 396.339 95.7813 396.339 96.212V98.15C396.339 98.5807 396.136 98.796 395.731 98.796H387.067C386.763 98.796 386.611 98.9227 386.611 99.176V105.598C386.611 105.851 386.763 105.978 387.067 105.978H394.401C394.857 105.978 395.085 106.193 395.085 106.624V108.562C395.085 108.993 394.857 109.208 394.401 109.208H387.067C386.763 109.208 386.611 109.335 386.611 109.588V116.352C386.611 116.631 386.763 116.77 387.067 116.77H395.731C396.136 116.77 396.339 116.985 396.339 117.416V119.354C396.339 119.785 396.136 120 395.731 120ZM422.425 120H420.069C419.638 120 419.423 119.785 419.423 119.354V96.212C419.423 95.7813 419.638 95.566 420.069 95.566H422.197C422.602 95.566 422.881 95.7053 423.033 95.984L432.229 112.514H432.381V96.212C432.381 95.7813 432.596 95.566 433.027 95.566H435.383C435.813 95.566 436.029 95.7813 436.029 96.212V119.354C436.029 119.785 435.813 120 435.383 120H433.331C432.925 120 432.596 119.797 432.343 119.392L423.223 103.052H423.071V119.354C423.071 119.785 422.855 120 422.425 120ZM466.505 120H464.111C463.655 120 463.427 119.785 463.427 119.354V99.176C463.427 98.9227 463.3 98.796 463.047 98.796H458.259C457.803 98.796 457.575 98.5807 457.575 98.15V96.212C457.575 95.7813 457.803 95.566 458.259 95.566H472.357C472.813 95.566 473.041 95.7813 473.041 96.212V98.15C473.041 98.5807 472.813 98.796 472.357 98.796H467.569C467.29 98.796 467.151 98.9227 467.151 99.176V119.354C467.151 119.785 466.936 120 466.505 120ZM524.868 120H522.474C522.044 120 521.828 119.785 521.828 119.354V96.212C521.828 95.7813 522.044 95.566 522.474 95.566H531.366C533.216 95.566 534.66 96.098 535.698 97.162C536.762 98.2007 537.294 99.6447 537.294 101.494V104.686C537.294 107.599 536.091 109.436 533.684 110.196V110.348L537.902 119.24C538.181 119.747 538.016 120 537.408 120H535.052C534.444 120 534.052 119.785 533.874 119.354L529.808 110.614H525.97C525.666 110.614 525.514 110.741 525.514 110.994V119.354C525.514 119.785 525.299 120 524.868 120ZM525.932 107.574H530.758C532.633 107.574 533.57 106.649 533.57 104.8V101.608C533.57 99.7333 532.633 98.796 530.758 98.796H525.932C525.654 98.796 525.514 98.9227 525.514 99.176V107.194C525.514 107.447 525.654 107.574 525.932 107.574ZM573.47 120H561.31C560.879 120 560.664 119.785 560.664 119.354V96.212C560.664 95.7813 560.879 95.566 561.31 95.566H573.47C573.875 95.566 574.078 95.7813 574.078 96.212V98.15C574.078 98.5807 573.875 98.796 573.47 98.796H564.806C564.502 98.796 564.35 98.9227 564.35 99.176V105.598C564.35 105.851 564.502 105.978 564.806 105.978H572.14C572.596 105.978 572.824 106.193 572.824 106.624V108.562C572.824 108.993 572.596 109.208 572.14 109.208H564.806C564.502 109.208 564.35 109.335 564.35 109.588V116.352C564.35 116.631 564.502 116.77 564.806 116.77H573.47C573.875 116.77 574.078 116.985 574.078 117.416V119.354C574.078 119.785 573.875 120 573.47 120ZM600.164 120H597.808C597.377 120 597.162 119.785 597.162 119.354V96.212C597.162 95.7813 597.377 95.566 597.808 95.566H599.936C600.341 95.566 600.62 95.7053 600.772 95.984L609.968 112.514H610.12V96.212C610.12 95.7813 610.335 95.566 610.766 95.566H613.122C613.552 95.566 613.768 95.7813 613.768 96.212V119.354C613.768 119.785 613.552 120 613.122 120H611.07C610.664 120 610.335 119.797 610.082 119.392L600.962 103.052H600.81V119.354C600.81 119.785 600.594 120 600.164 120ZM644.244 120H641.85C641.394 120 641.166 119.785 641.166 119.354V99.176C641.166 98.9227 641.039 98.796 640.786 98.796H635.998C635.542 98.796 635.314 98.5807 635.314 98.15V96.212C635.314 95.7813 635.542 95.566 635.998 95.566H650.096C650.552 95.566 650.78 95.7813 650.78 96.212V98.15C650.78 98.5807 650.552 98.796 650.096 98.796H645.308C645.029 98.796 644.89 98.9227 644.89 99.176V119.354C644.89 119.785 644.675 120 644.244 120ZM673.603 120H670.867C670.512 120 670.385 119.785 670.487 119.354L677.099 96.212C677.225 95.7813 677.529 95.566 678.011 95.566H681.811C682.317 95.566 682.621 95.7813 682.723 96.212L689.335 119.354C689.436 119.785 689.297 120 688.917 120H686.219C685.991 120 685.826 119.962 685.725 119.886C685.649 119.785 685.585 119.607 685.535 119.354L684.091 114.414H675.731L674.287 119.354C674.185 119.785 673.957 120 673.603 120ZM679.835 99.214L676.491 111.374H683.369L679.987 99.214H679.835ZM724.289 120H711.977C711.546 120 711.331 119.785 711.331 119.354V96.212C711.331 95.7813 711.546 95.566 711.977 95.566H714.371C714.802 95.566 715.017 95.7813 715.017 96.212V116.314C715.017 116.567 715.169 116.694 715.473 116.694H724.289C724.72 116.694 724.935 116.922 724.935 117.378V119.354C724.935 119.785 724.72 120 724.289 120Z" fill="#F9CD00"/>
<path d="M130.499 68.9109C131.503 68.643 134.38 67.7054 133.979 64.357L132.641 52.9723C132.239 49.6239 129.161 49.423 128.158 49.423L120.797 49.0211C120.262 47.4139 119.66 45.8066 118.991 44.2664L124.21 39.1098C124.946 38.3731 127.154 36.2301 125.213 33.4844L118.79 24.1088C117.719 22.5685 116.381 22.3676 115.645 22.3676C114.641 22.3676 113.838 22.7694 113.169 23.0373L106.478 26.1178C105.273 24.9124 104.002 23.8409 102.731 22.7694L105.006 15.7377C105.34 14.7331 106.277 11.8535 103.266 10.2462L93.0953 4.88872C92.4931 4.55388 91.824 4.35297 91.1549 4.35297C89.2813 4.35297 88.2107 5.69235 87.6085 6.49597L83.1254 12.3223C81.5194 11.8535 79.8466 11.4517 78.1738 11.1168L76.9025 4.01813C76.7017 3.01359 76.2334 0 72.8208 0H61.4457C58.0331 0 57.5647 3.01359 57.364 4.01813L56.0927 11.2508C54.4198 11.5856 52.8139 11.9874 51.1411 12.4562L46.658 6.62991C46.0558 5.82628 44.9852 4.41994 43.1116 4.41994C42.4425 4.41994 41.8403 4.62085 41.1711 4.95569L31.0673 10.3132C28.0563 11.8535 28.993 14.8001 29.3276 15.7377L31.6026 22.7694C30.3313 23.8409 29.06 24.9794 27.7886 26.1178L21.0973 23.0373C20.4282 22.7024 19.6253 22.3676 18.6216 22.3676C17.8855 22.3676 16.5473 22.5685 15.4767 24.1088L8.98616 33.5514C7.0457 36.364 9.25381 38.4401 9.98985 39.1767L15.276 44.3333C14.6068 45.8736 14.0046 47.4809 13.4693 49.0881L6.10892 49.423C5.10523 49.4899 2.02725 49.6239 1.62577 52.9723L0.220609 64.357C-0.180867 67.7054 2.76329 68.576 3.70007 68.9109L10.7928 71.0539C10.9266 72.7281 11.1274 74.4023 11.395 76.0765L5.03832 79.8268C4.16845 80.3625 1.49195 81.9028 2.69638 85.0503L6.77805 95.7653C7.38026 97.3726 8.71851 98.3771 10.3913 98.3771C10.9266 98.3771 11.4619 98.2432 11.9303 98.1762L19.1569 96.7699C20.0267 98.1762 21.0304 99.5826 22.0341 100.922L18.1532 107.15C17.6179 108.021 16.012 110.632 18.5547 112.842L27.1195 120.477C27.9224 121.146 28.7923 121.548 29.7291 121.548C31.1342 121.548 32.1379 120.745 32.8071 120.209L38.5615 115.588C40.0336 116.459 41.5057 117.262 43.0447 117.932L42.6432 125.232C42.5763 126.236 42.3756 129.317 45.6543 130.12L56.7618 132.866C57.1633 132.933 57.4978 133 57.8324 133C60.3081 133 61.2449 130.924 61.6464 129.919L64.5906 123.156C65.4604 123.223 66.2634 123.223 67.1332 123.223C68.0031 123.223 68.8061 123.223 69.6759 123.156L72.6201 129.919C73.0885 130.924 73.9583 133 76.4341 133C76.7687 133 77.1701 132.933 77.5047 132.866L88.6122 130.12C91.8909 129.317 91.6902 126.236 91.6233 125.232L91.088 117.865C92.6269 117.128 94.099 116.325 95.5711 115.521L101.326 120.142C102.062 120.745 102.998 121.481 104.404 121.481C105.34 121.481 106.21 121.147 107.013 120.41L115.578 112.842C118.121 110.565 116.515 108.021 115.979 107.15L112.099 100.855C113.102 99.5156 114.106 98.1092 114.976 96.7029L122.202 98.1092C122.671 98.1762 123.206 98.3102 123.741 98.3102C125.414 98.3102 126.752 97.3726 127.355 95.7653L131.436 85.0503C132.641 81.9028 130.031 80.3625 129.161 79.8268L122.805 76.0765C123.072 74.4023 123.273 72.7281 123.407 71.0539L130.499 68.9109ZM67.1332 108.69C43.9146 108.69 24.9783 89.7382 24.9783 66.5C24.9783 43.2618 43.9146 24.3097 67.1332 24.3097C90.3519 24.3097 109.288 43.2618 109.288 66.5C109.288 89.7382 90.3519 108.69 67.1332 108.69Z" fill="url(#paint0_linear_5_44)"/>
<path d="M57.1831 102.99C55.46 106.97 58.6442 110.689 59.3748 111.949C60.1054 113.209 59.044 113.209 59.044 113.677C59.044 113.911 59.3266 114.442 59.616 114.917C59.9469 115.475 59.9469 116.17 59.6092 116.721C59.6092 116.721 59.3266 117.141 58.8993 117.699C58.1618 117.176 57.3554 116.418 56.804 115.378C56.9211 116.714 57.2589 117.905 57.8792 118.911C56.9487 119.923 55.8597 120.77 55.2601 120.109C53.9298 118.649 55.391 116.198 54.0608 112.479C52.7306 108.768 51.807 102.529 52.0689 100.139C52.3377 97.7496 56.3215 94.8919 57.252 91.8413C57.7344 90.2506 58.5822 88.4946 59.2783 87.1794C59.4437 87.627 59.6367 88.0677 59.8573 88.5015C60.7326 90.2575 61.8768 91.4901 62.8831 92.5712C63.4896 93.2185 64.0548 93.8245 64.5441 94.52C63.0002 97.5362 58.6304 99.6571 57.1831 102.99ZM127.816 112.183C126.858 111.336 125.115 110.344 123.536 107.982C123.46 107.914 123.385 107.845 123.309 107.776C120.186 104.884 118.636 101.874 117.264 99.2164C115.755 96.276 114.445 93.735 111.302 91.6623C110.399 91.0701 109.393 90.6913 108.242 90.5192C108.214 94.341 108.862 100.222 112.467 104.298C118.215 110.792 122.874 114.462 122.737 117.293C122.675 118.635 121.558 122.857 121.041 124.743C120.862 125.404 120.393 125.942 119.752 126.196C119.228 126.41 118.56 126.61 117.877 126.61C116.871 126.61 116.802 128.069 116.857 129.006C116.885 129.46 117.237 129.825 117.684 129.867C117.802 129.88 117.926 129.887 118.043 129.894C118.636 128.668 119.787 127.801 121.448 127.271C120.497 128.056 119.704 128.91 119.456 129.984C120.738 130.039 121.985 130.004 123.185 129.86C123.543 129.819 123.846 129.564 123.95 129.219C124.108 128.689 124.301 127.849 124.301 126.94C124.301 125.398 125.011 118.436 126.603 116.404C128.195 114.38 129.043 113.278 127.816 112.183ZM145.992 128.159C144.854 124.654 144.572 120.288 145.137 117.823C145.709 115.358 146.185 112.706 142.766 110.902C139.347 109.098 133.937 105.497 132.42 98.3832C130.897 91.2697 134.178 87.4686 128.809 78.8471C127.113 76.1271 128.395 74.0543 129.856 72.4705C131.318 70.8936 132.841 68.8209 131.504 67.54C130.16 66.2661 128.313 70.1981 126.383 71.8026C125.287 72.7184 122.916 73.2211 118.098 72.3535C113.666 71.5478 100.391 69.1652 94.6295 68.1322C93.0304 67.843 91.5279 67.2233 90.1287 66.3969C87.7095 64.9646 84.5459 63.8904 81.6442 63.3257C79.8935 62.9883 78.3014 62.2102 77.1159 61.4871C75.8339 60.709 74.8276 59.559 74.2279 58.1955C71.278 51.5021 67.177 46.1309 62.7245 43.1768C63.9583 40.6496 62.373 38.8247 61.1944 37.296C60.0158 35.7673 61.3667 31.5942 60.071 31.2981C57.5483 30.7266 56.2871 38.9074 56.2871 38.9074L48.7123 41.8891C48.0093 42.1576 47.4854 42.7567 47.2993 43.4798L46.9616 44.8088C46.8445 45.2633 46.5825 45.6765 46.2035 45.9519C43.8669 47.6734 40.9997 48.9061 37.7603 49.7806C37.1606 49.9459 36.6506 50.3866 36.499 50.9926C36.3336 51.6743 36.6437 52.2596 37.4639 52.7417C37.4639 52.7417 39.4213 56.777 41.7096 56.8734C43.9979 56.9697 46.2862 55.1587 47.6716 55.1587C49.05 55.1587 48.9535 56.6874 51.2418 55.8267C52.4411 55.379 53.6266 54.8764 54.4812 54.5045C55.2256 54.174 56.094 54.4563 56.5076 55.1587C57.8998 57.5482 61.1117 63.4772 61.4977 66.3556C61.9526 69.7298 60.9325 71.0933 60.2433 74.8945C59.5196 78.9022 59.4713 83.8878 61.3943 87.7372C63.3173 91.5796 66.6808 92.5161 67.7353 97.6945C68.3487 100.697 71.3263 113.953 68.8105 124.351C68.59 125.26 67.8249 125.907 66.9013 126.052C65.6676 126.238 64.0203 126.823 63.4758 128.551C63.2346 129.316 63.7515 130.115 64.5441 130.218C64.8543 130.259 65.2196 130.301 65.6262 130.321C66.0742 129.033 66.8255 128.125 67.9214 127.622C67.4389 128.448 67.0943 129.33 67.0185 130.369C67.7836 130.363 68.6382 130.314 69.5756 130.19C70.3544 130.094 71.023 129.577 71.3331 128.848C72.0913 127.078 73.4284 123.552 73.58 120.453C73.58 120.453 74.4278 121.727 75.2756 121.197C76.1233 120.667 74.2693 117.299 74.1383 112.775C74.0281 108.891 74.6415 101.592 76.1233 96.0832C76.1233 96.0832 77.4191 91.4419 77.4191 89.2728C77.4191 87.1105 74.6415 79.5702 74.8138 77.2289C74.8138 77.2289 77.1158 81.9941 78.4599 85.6369C79.5695 88.653 78.9699 93.3356 78.5288 95.7871C81.3822 95.4014 86.2552 94.644 90.1632 93.5146C95.9183 91.8551 105.14 86.2222 111.688 89.8857C110.248 87.6132 108.29 85.2375 105.974 82.786C105.974 82.786 113.204 87.6752 115.837 93.2943C115.837 93.2943 119.835 102.212 124.48 106.516C128.905 110.62 132.889 110.647 135.55 112.892C138.775 115.612 142.725 120.329 141.939 126.706C141.835 127.532 141.346 128.269 140.643 128.717C139.899 129.192 138.892 129.757 138.017 129.963C137.107 130.177 137.197 131.113 137.445 131.891C137.652 132.552 138.279 133 138.975 133H139.375C140.023 131.512 141.167 130.562 142.911 129.901C141.849 130.907 141.167 131.871 140.939 133H144.999C145.757 133 146.412 132.435 146.495 131.685C146.577 130.913 146.515 129.763 145.992 128.159Z" fill="#041250"/>
<defs>
<linearGradient id="paint0_linear_5_44" x1="23.5" y1="-1.89581e-06" x2="112.122" y2="133" gradientUnits="userSpaceOnUse">
<stop stop-color="#3D3D3D"/>
<stop offset="0.5" stop-color="#AEAEAE"/>
<stop offset="1" stop-color="#4A4A4A"/>
</linearGradient>
</defs>
</svg>
